<svg xmlns="http://www.w3.org/2000/svg" xmlns:xlink="http://www.w3.org/1999/xlink" xmlns:inkscape="http://www.inkscape.org/namespaces/inkscape" version="1.1" width="243.78" height="289.61" viewBox="0 0 243.78 289.61">
<path transform="matrix(1,0,0,-1,106.061008,158.97699)" stroke-width=".79701" stroke-linecap="butt" stroke-miterlimit="10" stroke-linejoin="miter" fill="none" stroke="#800080" d="M102.31375 55.83508C70.62245 122.88316 5.46999 158.58234-43.21063 135.5727-91.89125 112.56305-105.66344 39.55893-73.97215-27.48914-42.28085-94.53722 22.8716-130.23639 71.55223-107.22675 120.23285-84.21712 134.00504-11.21298 102.31375 55.83508ZM14.17079 14.17296"/>
<path transform="matrix(1,0,0,-1,106.061008,158.97699)" stroke-width=".79701" stroke-linecap="butt" stroke-miterlimit="10" stroke-linejoin="miter" fill="none" stroke="#bf0040" d="M44.98738 57.80869C43.89934 74.06638 27.63507 86.21599 8.65958 84.94608-10.31592 83.67616-24.81618 69.46762-23.72813 53.20995-22.6401 36.95226-6.37584 24.80264 12.59966 26.07256 31.57515 27.34247 46.07541 41.55101 44.98738 57.80869ZM10.62961 55.50932"/>
<path transform="matrix(1,0,0,-1,106.061008,158.97699)" stroke-width=".79701" stroke-linecap="butt" stroke-miterlimit="10" stroke-linejoin="miter" fill="none" stroke="#008080" d="M0 141.73404-56.69362-56.69362 85.04042 85.04042H-85.04042L113.38724-56.69362Z"/>
<path transform="matrix(1,0,0,-1,106.061008,158.97699)" d="M1.99255 141.73404C1.99255 142.83452 1.10046 143.7266 0 143.7266-1.10046 143.7266-1.99255 142.83452-1.99255 141.73404-1.99255 140.63358-1.10046 139.74149 0 139.74149 1.10046 139.74149 1.99255 140.63358 1.99255 141.73404ZM0 141.73404" fill="#ff0000"/>
<path transform="matrix(1,0,0,-1,106.061008,158.97699)" d="M-54.70107-56.69362C-54.70107-55.59314-55.59314-54.70107-56.69362-54.70107-57.79408-54.70107-58.68617-55.59314-58.68617-56.69362-58.68617-57.79408-57.79408-58.68617-56.69362-58.68617-55.59314-58.68617-54.70107-57.79408-54.70107-56.69362ZM-56.69362-56.69362" fill="#ff0000"/>
<path transform="matrix(1,0,0,-1,106.061008,158.97699)" d="M87.03297 85.04042C87.03297 86.1409 86.1409 87.03297 85.04042 87.03297 83.93996 87.03297 83.04787 86.1409 83.04787 85.04042 83.04787 83.93996 83.93996 83.04787 85.04042 83.04787 86.1409 83.04787 87.03297 83.93996 87.03297 85.04042ZM85.04042 85.04042" fill="#ff0000"/>
<path transform="matrix(1,0,0,-1,106.061008,158.97699)" d="M-83.04787 85.04042C-83.04787 86.1409-83.93996 87.03297-85.04042 87.03297-86.1409 87.03297-87.03297 86.1409-87.03297 85.04042-87.03297 83.93996-86.1409 83.04787-85.04042 83.04787-83.93996 83.04787-83.04787 83.93996-83.04787 85.04042ZM-85.04042 85.04042" fill="#ff0000"/>
<path transform="matrix(1,0,0,-1,106.061008,158.97699)" d="M115.37979-56.69362C115.37979-55.59314 114.4877-54.70107 113.38724-54.70107 112.28676-54.70107 111.39468-55.59314 111.39468-56.69362 111.39468-57.79408 112.28676-58.68617 113.38724-58.68617 114.4877-58.68617 115.37979-57.79408 115.37979-56.69362ZM113.38724-56.69362" fill="#ff0000"/>
</svg>
