<svg xmlns="http://www.w3.org/2000/svg" xmlns:xlink="http://www.w3.org/1999/xlink" version="1.1" width="258pt" height="213.49pt" viewBox="0 0 258 213.49">
<g>
<path transform="matrix(1,0,0,-1,99.713,139.188)" d="M113.38724 0 85.04042 113.38724-85.04042 28.3468Z" fill="#00aeef" fill-opacity=".45"/>
<path transform="matrix(1,0,0,-1,99.713,139.188)" stroke-width=".79701" stroke-linecap="butt" stroke-miterlimit="10" stroke-linejoin="miter" fill="none" stroke="#000000" stroke-opacity=".45" d="M113.38724 0 85.04042 113.38724-85.04042 28.3468Z"/>
</g>
<path transform="matrix(1,0,0,-1,99.713,139.188)" stroke-width=".79701" stroke-linecap="butt" stroke-miterlimit="10" stroke-linejoin="miter" fill="none" stroke="#000000" d="M119.89717 36.21335C119.89717 92.86606 73.9724 138.79085 17.31969 138.79085-39.33301 138.79085-85.2578 92.86606-85.2578 36.21335-85.2578-20.43935-39.33301-66.36412 17.31969-66.36412 73.9724-66.36412 119.89717-20.43935 119.89717 36.21335ZM17.31969 36.21335"/>
<path transform="matrix(1,0,0,-1,99.713,139.188)" stroke-width=".3985" stroke-linecap="butt" stroke-miterlimit="10" stroke-linejoin="miter" fill="none" stroke="#008080" d="M51.33035-60.65558-11.52979 65.10295"/>
<path transform="matrix(1,0,0,-1,99.713,139.188)" stroke-width=".3985" stroke-linecap="butt" stroke-miterlimit="10" stroke-linejoin="miter" fill="none" stroke="#008080" d="M51.33035-60.65558 61.0516 7.47845"/>
<path transform="matrix(1,0,0,-1,99.713,139.188)" stroke-width=".3985" stroke-linecap="butt" stroke-miterlimit="10" stroke-linejoin="miter" fill="none" stroke="#008080" d="M51.33035-60.65558 124.00787-42.48724"/>
<path transform="matrix(1,0,0,-1,99.713,139.188)" stroke-width=".79701" stroke-linecap="butt" stroke-miterlimit="10" stroke-linejoin="miter" fill="none" stroke="#ec008c" d="M-79.2986 118.89806 157.89228-69.38478"/>
<path transform="matrix(1,0,0,-1,99.713,139.188)" stroke-width=".3985" stroke-linecap="butt" stroke-miterlimit="10" stroke-linejoin="miter" fill="none" stroke="#000000" d="M0 113.38724"/>
<text xml:space="preserve" transform="matrix(1 0 -0 1 45.335 -37.985)" font-size="9.9626" font-family="LMRoman10"><tspan y="67.188" x="27.713 33.252206 36.02181 44.320657 48.245923 53.227224 62.074014 68.30064 71.07024 76.60944">SimsonLine</tspan></text>
<path transform="matrix(1,0,0,-1,99.713,139.188)" stroke-width=".3985" stroke-linecap="butt" stroke-miterlimit="10" stroke-linejoin="miter" fill="none" stroke="#000000" d="M0 106.24596C0 87.66833-32.27782 105.13686-42.87811 94.53656"/>
<path transform="matrix(-.7071,.7071,.7071,.7071,56.83489,44.651445)" d="M3.58653 0C2.52383 .19925 .797 .797-.3985 1.49438V-1.49438C.797-.797 2.52383-.19925 3.58653 0"/>
<path transform="matrix(1,0,0,-1,99.713,139.188)" stroke-width=".3985" stroke-linecap="butt" stroke-miterlimit="10" stroke-linejoin="miter" fill="none" stroke="#ff0000" d="M-8.99512 60.03207-14.06567 57.49672-16.60033 62.5676"/>
<path transform="matrix(1,0,0,-1,99.713,139.188)" stroke-width=".3985" stroke-linecap="butt" stroke-miterlimit="10" stroke-linejoin="miter" fill="none" stroke="#ff0000" d="M60.25099 1.86612 54.63884 2.6677 55.43945 8.28003"/>
<path transform="matrix(1,0,0,-1,99.713,139.188)" stroke-width=".3985" stroke-linecap="butt" stroke-miterlimit="10" stroke-linejoin="miter" fill="none" stroke="#ff0000" d="M118.50783-43.86201 117.13304-38.36197 122.63309-36.9872"/>
<path transform="matrix(1,0,0,-1,99.713,139.188)" stroke-width=".3985" stroke-linecap="butt" stroke-dasharray="2.98883,2.98883" stroke-miterlimit="10" stroke-linejoin="miter" fill="none" stroke="#000000" d="M113.38724 0 127.56062-56.69362"/>
<path transform="matrix(1,0,0,-1,99.713,139.188)" d="M115.37979 0C115.37979 1.10046 114.4877 1.99255 113.38724 1.99255 112.28676 1.99255 111.39468 1.10046 111.39468 0 111.39468-1.10046 112.28676-1.99255 113.38724-1.99255 114.4877-1.99255 115.37979-1.10046 115.37979 0ZM113.38724 0" fill="#ff0000"/>
<path transform="matrix(1,0,0,-1,99.713,139.188)" stroke-width=".3985" stroke-linecap="butt" stroke-miterlimit="10" stroke-linejoin="miter" fill="none" stroke="#000000" d="M113.38724 0"/>
<text xml:space="preserve" transform="matrix(1 0 -0 1 188.907 82.328)" font-size="9.9626" font-family="CMMI10" font-style="italic"><tspan y="67.188" x="27.713">A</tspan></text>
<path transform="matrix(1,0,0,-1,99.713,139.188)" d="M87.03297 113.38724C87.03297 114.4877 86.1409 115.37979 85.04042 115.37979 83.93996 115.37979 83.04787 114.4877 83.04787 113.38724 83.04787 112.28676 83.93996 111.39468 85.04042 111.39468 86.1409 111.39468 87.03297 112.28676 87.03297 113.38724ZM85.04042 113.38724" fill="#ff0000"/>
<path transform="matrix(1,0,0,-1,99.713,139.188)" stroke-width=".3985" stroke-linecap="butt" stroke-miterlimit="10" stroke-linejoin="miter" fill="none" stroke="#000000" d="M85.04042 113.38724"/>
<text xml:space="preserve" transform="matrix(1 0 -0 1 160.56 -44.906999)" font-size="9.9626" font-family="CMMI10" font-style="italic"><tspan y="67.188" x="27.713">B</tspan></text>
<path transform="matrix(1,0,0,-1,99.713,139.188)" d="M-83.04787 28.3468C-83.04787 29.44728-83.93996 30.33936-85.04042 30.33936-86.1409 30.33936-87.03297 29.44728-87.03297 28.3468-87.03297 27.24634-86.1409 26.35425-85.04042 26.35425-83.93996 26.35425-83.04787 27.24634-83.04787 28.3468ZM-85.04042 28.3468" fill="#ff0000"/>
<path transform="matrix(1,0,0,-1,99.713,139.188)" stroke-width=".3985" stroke-linecap="butt" stroke-miterlimit="10" stroke-linejoin="miter" fill="none" stroke="#000000" d="M-85.04042 28.3468"/>
<text xml:space="preserve" transform="matrix(1 0 -0 1 -24.392998 47.057)" font-size="9.9626" font-family="CMMI10" font-style="italic"><tspan y="67.188" x="27.713">C</tspan></text>
<path transform="matrix(1,0,0,-1,99.713,139.188)" d="M-9.53723 65.10295C-9.53723 66.20341-10.4293 67.0955-11.52979 67.0955-12.63025 67.0955-13.52234 66.20341-13.52234 65.10295-13.52234 64.00249-12.63025 63.1104-11.52979 63.1104-10.4293 63.1104-9.53723 64.00249-9.53723 65.10295ZM-11.52979 65.10295" fill="#ff0000"/>
<path transform="matrix(1,0,0,-1,99.713,139.188)" stroke-width=".3985" stroke-linecap="butt" stroke-miterlimit="10" stroke-linejoin="miter" fill="none" stroke="#000000" d="M-11.52979 65.10295"/>
<text xml:space="preserve" transform="matrix(1 0 -0 1 55.336999 3.376999)" font-size="9.9626" font-family="CMMI10" font-style="italic"><tspan y="67.188" x="27.713">A</tspan></text>
<text xml:space="preserve" transform="matrix(1 0 -0 1 55.336999 3.376999)" font-size="6.9738" font-family="CMSY7" font-style="italic"><tspan y="63.572004" x="35.184999">&#x2032;</tspan></text>
<path transform="matrix(1,0,0,-1,99.713,139.188)" d="M63.04416 7.47845C63.04416 8.57892 62.15208 9.47101 61.0516 9.47101 59.95114 9.47101 59.05905 8.57892 59.05905 7.47845 59.05905 6.37798 59.95114 5.4859 61.0516 5.4859 62.15208 5.4859 63.04416 6.37798 63.04416 7.47845ZM61.0516 7.47845" fill="#ff0000"/>
<path transform="matrix(1,0,0,-1,99.713,139.188)" stroke-width=".3985" stroke-linecap="butt" stroke-miterlimit="10" stroke-linejoin="miter" fill="none" stroke="#000000" d="M61.0516 7.47845"/>
<text xml:space="preserve" transform="matrix(1 0 -0 1 127.626 61.002)" font-size="9.9626" font-family="CMMI10" font-style="italic"><tspan y="67.188" x="27.713">B</tspan></text>
<text xml:space="preserve" transform="matrix(1 0 -0 1 127.626 61.002)" font-size="6.9738" font-family="CMSY7" font-style="italic"><tspan y="63.572004" x="35.768999">&#x2032;</tspan></text>
<path transform="matrix(1,0,0,-1,99.713,139.188)" d="M126.00043-42.48724C126.00043-41.38676 125.10834-40.49469 124.00787-40.49469 122.9074-40.49469 122.01532-41.38676 122.01532-42.48724 122.01532-43.5877 122.9074-44.4798 124.00787-44.4798 125.10834-44.4798 126.00043-43.5877 126.00043-42.48724ZM124.00787-42.48724" fill="#ff0000"/>
<path transform="matrix(1,0,0,-1,99.713,139.188)" stroke-width=".3985" stroke-linecap="butt" stroke-miterlimit="10" stroke-linejoin="miter" fill="none" stroke="#000000" d="M124.00787-42.48724"/>
<text xml:space="preserve" transform="matrix(1 0 -0 1 199.528 110.966999)" font-size="9.9626" font-family="CMMI10" font-style="italic"><tspan y="67.188" x="27.713">C</tspan></text>
<text xml:space="preserve" transform="matrix(1 0 -0 1 199.528 110.966999)" font-size="6.9738" font-family="CMSY7" font-style="italic"><tspan y="63.572004" x="35.545999">&#x2032;</tspan></text>
<path transform="matrix(1,0,0,-1,99.713,139.188)" d="M53.3229-60.65558C53.3229-59.55511 52.43083-58.66302 51.33035-58.66302 50.22989-58.66302 49.3378-59.55511 49.3378-60.65558 49.3378-61.75606 50.22989-62.64813 51.33035-62.64813 52.43083-62.64813 53.3229-61.75606 53.3229-60.65558ZM51.33035-60.65558" fill="#ff0000"/>
<path transform="matrix(1,0,0,-1,99.713,139.188)" stroke-width=".3985" stroke-linecap="butt" stroke-miterlimit="10" stroke-linejoin="miter" fill="none" stroke="#000000" d="M51.33035-60.65558"/>
<text xml:space="preserve" transform="matrix(1 0 -0 1 119.44 142.983)" font-size="9.9626" font-family="CMMI10" font-style="italic"><tspan y="67.188" x="27.713">P</tspan></text>
</svg>
